<svg xmlns="http://www.w3.org/2000/svg" viewBox="0 0 200 200">
<path d="M30-450L30-640L1070-640L1070-450L30-450M425 0L425-463L675-463L675 0" transform="translate(69.75,117.6) scale(0.055)" fill="#FFFFFF"></path><g transform="translate(100,100)"><rect x="-8" y="-92" width="16" height="36" rx="8" fill="#FFFFFF"></rect><rect x="-6.5" y="-92" width="13" height="20" rx="6.5" transform="rotate(30)" fill="#FFFFFF"></rect><rect x="-6.5" y="-92" width="13" height="20" rx="6.5" transform="rotate(60)" fill="#FFFFFF"></rect><rect x="-8" y="-92" width="16" height="36" rx="8" transform="rotate(90)" fill="#FFFFFF"></rect><rect x="-6.5" y="-92" width="13" height="20" rx="6.5" transform="rotate(120)" fill="#FFFFFF"></rect><rect x="-6.5" y="-92" width="13" height="20" rx="6.5" transform="rotate(150)" fill="#FFFFFF"></rect><rect x="-8" y="-92" width="16" height="36" rx="8" transform="rotate(180)" fill="#FFFFFF"></rect><rect x="-6.5" y="-92" width="13" height="20" rx="6.5" transform="rotate(210)" fill="#FFFFFF"></rect><rect x="-6.5" y="-92" width="13" height="20" rx="6.5" transform="rotate(240)" fill="#FFFFFF"></rect><rect x="-8" y="-92" width="16" height="36" rx="8" transform="rotate(270)" fill="#FFFFFF"></rect><rect x="-6.5" y="-92" width="13" height="20" rx="6.5" transform="rotate(300)" fill="#FFFFFF"></rect><rect x="-6.5" y="-92" width="13" height="20" rx="6.5" transform="rotate(330)" fill="#FFFFFF"></rect></g>
</svg>