<svg xmlns="http://www.w3.org/2000/svg" viewBox="0 0 200 200">
<rect x="0" y="0" width="200" height="200" rx="48" fill="#FFFFFF" stroke="#E5DFD0" stroke-width="2"></rect><g transform="translate(100,100) scale(0.86) translate(-100,-100)"><path d="M30-450L30-640L1070-640L1070-450L30-450M425 0L425-463L675-463L675 0" transform="translate(69.75,117.6) scale(0.055)" fill="#000000"></path><g transform="translate(100,100)"><rect x="-8" y="-92" width="16" height="36" rx="8" fill="#000000"></rect><rect x="-6.5" y="-92" width="13" height="20" rx="6.5" transform="rotate(30)" fill="#000000"></rect><rect x="-6.5" y="-92" width="13" height="20" rx="6.5" transform="rotate(60)" fill="#000000"></rect><rect x="-8" y="-92" width="16" height="36" rx="8" transform="rotate(90)" fill="#000000"></rect><rect x="-6.5" y="-92" width="13" height="20" rx="6.5" transform="rotate(120)" fill="#000000"></rect><rect x="-6.5" y="-92" width="13" height="20" rx="6.5" transform="rotate(150)" fill="#000000"></rect><rect x="-8" y="-92" width="16" height="36" rx="8" transform="rotate(180)" fill="#000000"></rect><rect x="-6.5" y="-92" width="13" height="20" rx="6.5" transform="rotate(210)" fill="#000000"></rect><rect x="-6.5" y="-92" width="13" height="20" rx="6.5" transform="rotate(240)" fill="#000000"></rect><rect x="-8" y="-92" width="16" height="36" rx="8" transform="rotate(270)" fill="#000000"></rect><rect x="-6.5" y="-92" width="13" height="20" rx="6.5" transform="rotate(300)" fill="#000000"></rect><rect x="-6.5" y="-92" width="13" height="20" rx="6.5" transform="rotate(330)" fill="#000000"></rect></g></g>
</svg>